<svg width="233" height="74" viewBox="0 0 233 74" fill="none" xmlns="http://www.w3.org/2000/svg">
<path fill-rule="evenodd" clip-rule="evenodd" d="M102.27 22.7864C100.03 22.7864 97.3722 23.2783 94.4682 26.7662V17.0051C94.4682 14.5392 92.5364 12.5333 90.1615 12.5333C87.7867 12.5333 85.8548 14.5392 85.8548 17.0051V48.8375C85.8548 51.3033 87.7867 53.3092 90.1615 53.3092C92.5364 53.3092 94.4682 51.3033 94.4682 48.8375V36.4827C94.4682 32.9309 96.0925 30.9697 99.0518 30.9697C101.95 30.9697 103.475 32.8734 103.475 36.4827V48.8375C103.475 51.3033 105.407 53.3092 107.782 53.3092C110.157 53.3092 112.089 51.3033 112.089 48.8375V33.8891C112.083 26.9387 108.416 22.7864 102.27 22.7864ZM127.003 23.0037C123.496 23.0037 120.715 23.4764 117.99 24.5369C116.574 25.0863 115.627 26.5044 115.627 28.0632C115.627 30.1457 117.22 31.7747 119.257 31.7747C119.675 31.7747 120.026 31.7108 120.506 31.5447C122.161 31.0081 123.908 30.7526 125.859 30.7526C130.485 30.7526 131.47 33.4037 131.482 35.646C129.876 35.103 127.852 34.6047 125.028 34.6047C117.67 34.6047 113.449 38.099 113.449 44.1998V44.3084C113.449 49.8214 117.436 53.5266 123.367 53.5266C126.708 53.5266 129.384 52.4725 131.519 50.3133C131.882 51.8912 133.34 53.3157 135.579 53.3157C137.936 53.3157 139.782 51.4248 139.782 49.0101V35.8312C139.782 31.6853 138.736 28.4912 136.662 26.3447C134.521 24.128 131.273 23.0037 127.003 23.0037ZM125.754 47.1192C123.311 47.1192 121.798 45.9182 121.798 43.9826V43.874C121.798 41.5678 123.656 40.2519 126.898 40.2519C128.559 40.2519 130.214 40.5904 131.586 41.2037V42.4238C131.586 45.1836 129.187 47.1192 125.754 47.1192ZM151.323 26.8433C153.55 24.1155 156.294 22.7867 159.691 22.7867C166.169 22.7867 172.722 28.0442 172.722 38.0993V38.2079C172.722 42.8393 171.35 46.7617 168.759 49.5597C166.391 52.1214 163.173 53.5268 159.691 53.5268C156.338 53.5268 153.674 52.3386 151.366 49.8088V57.4747C151.366 59.9405 149.435 61.9464 147.06 61.9464C144.685 61.9464 142.753 59.9405 142.753 57.4747V27.4757C142.753 25.0098 144.685 23.0039 147.06 23.0039C149.231 23.0039 151.028 24.6777 151.323 26.8433ZM164.114 38.0993C164.114 33.7617 161.339 30.4845 157.66 30.4845C153.957 30.4845 151.262 33.685 151.262 38.0993V38.2079C151.262 42.6221 153.95 45.8226 157.66 45.8226C161.401 45.8226 164.114 42.6221 164.114 38.2079V38.0993ZM191.646 22.7867C188.25 22.7867 185.506 24.1155 183.279 26.8433C182.984 24.6777 181.187 23.0039 179.015 23.0039C176.641 23.0039 174.709 25.0098 174.709 27.4757V57.4747C174.709 59.9405 176.641 61.9464 179.015 61.9464C181.39 61.9464 183.322 59.9405 183.322 57.4747V49.8088C185.629 52.3386 188.293 53.5268 191.646 53.5268C195.129 53.5268 198.346 52.1214 200.715 49.5597C203.305 46.7617 204.677 42.8393 204.677 38.2079V38.0993C204.677 28.0442 198.125 22.7867 191.646 22.7867ZM189.616 30.4845C193.295 30.4845 196.07 33.7617 196.07 38.0993V38.2079C196.07 42.6221 193.357 45.8226 189.616 45.8226C185.906 45.8226 183.218 42.6221 183.218 38.2079V38.0993C183.218 33.685 185.912 30.4845 189.616 30.4845ZM223.891 26.3767C224.691 24.1664 226.119 23.0038 228.02 23.0038C230.315 23.0038 232.117 24.8244 232.111 27.1369C232.111 27.8077 231.902 28.7787 231.717 29.2259L222.003 53.45C219.56 59.589 217.013 61.7674 212.269 61.7674C210.596 61.7674 209.31 61.5374 207.834 60.9881C206.818 60.6048 205.108 59.6082 205.108 57.2446C205.108 54.9193 206.874 53.533 208.578 53.533C209.255 53.533 209.661 53.6544 209.987 53.7694C210.657 53.9866 211.027 54.076 211.537 54.076C212.829 54.076 213.371 53.8588 214.023 52.562L214.22 52.0765L204.77 29.3409C204.554 28.7787 204.327 27.9099 204.327 27.303C204.327 24.85 206.154 22.9974 208.578 22.9974C210.578 22.9974 211.931 24.0834 212.706 26.3193L218.397 42.2067L223.891 26.3767Z" fill="white"/>
<path d="M62.197 18.7786V44.9078C62.197 55.2784 54.0501 63.6863 44.0013 63.6863H42.1609L32.7624 73.3795C32.3943 73.7594 31.8851 74 31.3207 74C30.7993 74 30.3269 73.8037 29.965 73.4745L29.8055 73.3099L29.7993 73.3036L20.4806 63.6863H18.634C8.59142 63.6863 0.444443 55.2784 0.444443 44.9078V18.7786C0.444443 8.40794 8.59142 0 18.6402 0H44.0013C54.0501 0 62.197 8.40794 62.197 18.7786Z" fill="#FFD666"/>
<path d="M14.8223 36.197C13.0309 36.197 12.0099 38.3036 13.0492 39.8248C17.0905 45.7501 23.773 49.6133 31.3237 49.6133C38.8744 49.6133 45.5508 45.7437 49.5921 39.8248C50.6314 38.3036 49.6104 36.197 47.819 36.197H14.8223Z" fill="white"/>
<path d="M25.3138 27.2298H14.5045V21.6036C14.5045 18.4977 16.9256 15.9774 19.9091 15.9774C22.8927 15.9774 25.3138 18.4977 25.3138 21.6036V27.2298Z" fill="white"/>
<path d="M48.1435 27.2298H37.3341V21.6036C37.3341 18.4977 39.7552 15.9774 42.7388 15.9774C45.7224 15.9774 48.1435 18.4977 48.1435 21.6036V27.2298Z" fill="white"/>
</svg>
